<svg width="28" height="28" viewBox="0 0 28 28" fill="none" xmlns="http://www.w3.org/2000/svg">
<g id="Icon/Business">
<path id="Vector" d="M3.49992 6.99999H18.6666C19.3083 6.99999 19.8333 6.47499 19.8333 5.83332C19.8333 5.19166 19.3083 4.66666 18.6666 4.66666H3.49992C2.85826 4.66666 2.33326 5.19166 2.33326 5.83332C2.33326 6.47499 2.85826 6.99999 3.49992 6.99999ZM17.4999 19.8333H19.8333V16.3333H20.0433C20.7783 16.3333 21.3266 15.6567 21.1866 14.9333L20.0199 9.09999C19.9149 8.56332 19.4366 8.16666 18.8766 8.16666H3.28992C2.72992 8.16666 2.25159 8.56332 2.14659 9.09999L0.979923 14.9333C0.839923 15.6567 1.38826 16.3333 2.12326 16.3333H2.33326V22.1667C2.33326 22.8083 2.85826 23.3333 3.49992 23.3333H11.6666C12.3083 23.3333 12.8333 22.8083 12.8333 22.1667V16.3333H17.4999V19.8333ZM10.4999 21H4.66659V16.3333H10.4999V21Z" fill="#8E8E93"/>
<path id="Vector_2" d="M25.6667 21H23.3333V18.6667C23.3333 18.025 22.8083 17.5 22.1667 17.5C21.525 17.5 21 18.025 21 18.6667V21H18.6667C18.025 21 17.5 21.525 17.5 22.1667C17.5 22.8083 18.025 23.3333 18.6667 23.3333H21V25.6667C21 26.3083 21.525 26.8333 22.1667 26.8333C22.8083 26.8333 23.3333 26.3083 23.3333 25.6667V23.3333H25.6667C26.3083 23.3333 26.8333 22.8083 26.8333 22.1667C26.8333 21.525 26.3083 21 25.6667 21Z" fill="#8E8E93"/>
</g>
</svg>
