<svg width="16" height="16" viewBox="0 0 16 16" fill="none" xmlns="http://www.w3.org/2000/svg">
<path d="M12.927 12.9273C12.7028 13.1516 12.3392 13.1516 12.115 12.9273L3.1828 3.99513C2.95857 3.7709 2.95857 3.40735 3.1828 3.18312C3.40703 2.95889 3.77059 2.95889 3.99482 3.18312L12.927 12.1153C13.1512 12.3395 13.1512 12.7031 12.927 12.9273Z" fill="#8E8E93"/>
<path d="M3.07251 12.8169C2.84828 12.5927 2.84828 12.2291 3.07251 12.0049L12.0047 3.07269C12.2289 2.84846 12.5925 2.84846 12.8167 3.07269C13.0409 3.29693 13.0409 3.66048 12.8167 3.88471L3.88453 12.8169C3.6603 13.0411 3.29674 13.0411 3.07251 12.8169Z" fill="#8E8E93"/>
</svg>
