          <svg
            width="124"
            height="124"
            viewBox="0 0 124 124"
            fill="none"
            xmlns="http://www.w3.org/2000/svg"
          >
            <path
              fill-rule="evenodd"
              clip-rule="evenodd"
              d="M40.2459 9.48126C47.1424 6.62455 54.5352 5.1583 61.9999 5.16666C69.4646 5.1583 76.8574 6.62455 83.7539 9.48126C90.6499 12.3378 96.9138 16.5284 102.186 21.8123C107.471 27.0847 111.662 33.3492 114.519 40.246C117.375 47.1425 118.842 54.5353 118.833 62C118.842 69.4647 117.375 76.8575 114.519 83.754C111.662 90.6504 107.471 96.9146 102.187 102.187C96.9145 107.471 90.6503 111.662 83.7539 114.519C76.8574 117.375 69.4646 118.842 61.9999 118.833C54.5352 118.842 47.1424 117.375 40.2459 114.519C33.3494 111.662 27.0853 107.471 21.813 102.187C16.5287 96.9146 12.3378 90.6504 9.48114 83.754C6.62443 76.8575 5.15817 69.4647 5.16654 62C5.15817 54.5353 6.62443 47.1425 9.48114 40.246C12.3378 33.3496 16.5287 27.0854 21.813 21.8131C27.0853 16.5288 33.3494 12.3379 40.2459 9.48126ZM5.16654 62C5.16654 61.9979 5.16654 61.9958 5.16655 61.9936L10.3332 62L5.16655 62.0064C5.16654 62.0042 5.16654 62.0021 5.16654 62ZM61.9999 118.833C61.9978 118.833 61.9956 118.833 61.9935 118.833L61.9999 113.667L62.0062 118.833C62.0041 118.833 62.002 118.833 61.9999 118.833ZM118.833 62C118.833 62.0021 118.833 62.0042 118.833 62.0064L113.667 62L118.833 61.9936C118.833 61.9958 118.833 61.9979 118.833 62ZM61.9999 5.16666C62.002 5.16666 62.0041 5.16667 62.0062 5.16667L61.9999 10.3333L61.9935 5.16667C61.9956 5.16667 61.9978 5.16666 61.9999 5.16666ZM61.9935 15.5C55.888 15.4925 49.8411 16.6914 44.2004 19.028C38.5597 21.3645 33.4362 24.7926 29.1243 29.1153L29.1152 29.1245C24.7925 33.4363 21.3644 38.5598 19.0278 44.2005C16.6913 49.8413 15.4923 55.8881 15.4999 61.9936V62.0064C15.4923 68.1119 16.6913 74.1587 19.0278 79.7995C21.3644 85.4402 24.7925 90.5637 29.1152 94.8755L29.1244 94.8847C33.4362 99.2074 38.5597 102.635 44.2004 104.972C49.8411 107.309 55.888 108.508 61.9935 108.5H62.0062C68.1118 108.508 74.1586 107.309 79.7994 104.972C85.4401 102.635 90.5636 99.2074 94.8754 94.8847L94.8846 94.8755C99.2073 90.5637 102.635 85.4402 104.972 79.7995C107.308 74.1587 108.507 68.1119 108.5 62.0064V61.9936C108.507 55.8881 107.308 49.8413 104.972 44.2005C102.635 38.5598 99.2073 33.4363 94.8846 29.1245L94.8754 29.1153C90.5636 24.7926 85.4401 21.3645 79.7994 19.028C74.1586 16.6914 68.1118 15.4925 62.0062 15.5H61.9935Z"
              fill="#CB6015"
            />
            <path
              fill-rule="evenodd"
              clip-rule="evenodd"
              d="M91.4866 42.8466C93.5043 44.8643 93.5043 48.1357 91.4866 50.1534L60.4866 81.1534C58.4688 83.1711 55.1975 83.1711 53.1798 81.1534L37.6798 65.6534C35.6621 63.6357 35.6621 60.3643 37.6798 58.3466C39.6975 56.3289 42.9688 56.3289 44.9866 58.3466L56.8332 70.1932L84.1798 42.8466C86.1975 40.8289 89.4688 40.8289 91.4866 42.8466Z"
              fill="#CB6015"
            />
          </svg>