<svg width="32" height="32" viewBox="0 0 32 32" fill="none" xmlns="http://www.w3.org/2000/svg">
<g id="Group">
<path id="Vector (Stroke)" fill-rule="evenodd" clip-rule="evenodd" d="M10.0353 1.5997C11.9263 0.81641 13.9533 0.414372 16.0001 0.416666C18.0469 0.414372 20.0739 0.81641 21.9649 1.5997C23.8558 2.38295 25.5733 3.53197 27.0189 4.98079C28.4679 6.42646 29.6171 8.14414 30.4004 10.0352C31.1837 11.9262 31.5857 13.9532 31.5834 16C31.5857 18.0468 31.1837 20.0738 30.4004 21.9648C29.6171 23.8558 28.468 25.5734 27.0191 27.019C25.5735 28.4679 23.8559 29.617 21.9649 30.4003C20.0739 31.1836 18.0469 31.5856 16.0001 31.5833C13.9533 31.5856 11.9263 31.1836 10.0353 30.4003C8.14433 29.617 6.42673 28.4679 4.98111 27.019C3.53218 25.5734 2.38308 23.8558 1.59979 21.9648C0.816502 20.0738 0.414464 18.0468 0.416758 16C0.414464 13.9532 0.816502 11.9262 1.59979 10.0352C2.38308 8.14424 3.53218 6.42664 4.98111 4.98102C6.42673 3.53209 8.14433 2.38299 10.0353 1.5997ZM0.416758 16C0.416758 15.9994 0.416759 15.9988 0.41676 15.9983L1.83343 16L0.41676 16.0017C0.416759 16.0012 0.416758 16.0006 0.416758 16ZM16.0001 31.5833C15.9995 31.5833 15.9989 31.5833 15.9983 31.5833L16.0001 30.1667L16.0018 31.5833C16.0013 31.5833 16.0007 31.5833 16.0001 31.5833ZM31.5834 16C31.5834 16.0006 31.5834 16.0012 31.5834 16.0017L30.1668 16L31.5834 15.9983C31.5834 15.9988 31.5834 15.9994 31.5834 16ZM16.0001 0.416666C16.0007 0.416667 16.0013 0.416668 16.0018 0.416668L16.0001 1.83333L15.9983 0.416668C15.9989 0.416668 15.9995 0.416667 16.0001 0.416666ZM15.9983 3.25C14.3243 3.24793 12.6662 3.57668 11.1196 4.21735C9.57293 4.85801 8.16811 5.79797 6.98583 6.98323L6.98332 6.98574C5.79807 8.16802 4.85811 9.57284 4.21744 11.1195C3.57677 12.6662 3.24803 14.3242 3.25009 15.9983V16.0017C3.24803 17.6758 3.57677 19.3338 4.21744 20.8805C4.8581 22.4272 5.79807 23.832 6.98332 25.0143L6.98584 25.0168C8.16811 26.202 9.57293 27.142 11.1196 27.7827C12.6662 28.4233 14.3242 28.7521 15.9983 28.75H16.0018C17.6759 28.7521 19.3339 28.4233 20.8806 27.7827C22.4272 27.142 23.8321 26.202 25.0143 25.0168L25.0169 25.0143C26.2021 23.832 27.1421 22.4272 27.7827 20.8805C28.4234 19.3338 28.7522 17.6758 28.7501 16.0017V15.9983C28.7522 14.3242 28.4234 12.6662 27.7827 11.1195C27.1421 9.57284 26.2021 8.16802 25.0169 6.98574L25.0143 6.98323C23.8321 5.79797 22.4272 4.85801 20.8806 4.21735C19.3339 3.57668 17.6759 3.24793 16.0018 3.25H15.9983Z" fill="black"/>
<path id="Vector (Stroke)_2" fill-rule="evenodd" clip-rule="evenodd" d="M24.0851 10.7483C24.6384 11.3015 24.6384 12.1985 24.0851 12.7517L15.5851 21.2517C15.0319 21.805 14.1349 21.805 13.5817 21.2517L9.33168 17.0017C8.77844 16.4485 8.77844 15.5515 9.33168 14.9983C9.88492 14.445 10.7819 14.445 11.3351 14.9983L14.5834 18.2465L22.0817 10.7483C22.6349 10.195 23.5319 10.195 24.0851 10.7483Z" fill="black"/>
</g>
</svg>
