<svg width="12" height="12" viewBox="0 0 12 12" fill="none" xmlns="http://www.w3.org/2000/svg">
<g id="Group">
<path id="Rectangle 1" d="M10.927 10.9272C10.7028 11.1515 10.3392 11.1515 10.115 10.9272L1.1828 1.99506C0.958569 1.77083 0.958569 1.40727 1.1828 1.18304C1.40703 0.958809 1.77059 0.958809 1.99482 1.18304L10.927 10.1152C11.1512 10.3395 11.1512 10.703 10.927 10.9272Z" fill="#8E8E93"/>
<path id="Rectangle 2" d="M1.07251 10.8169C0.84828 10.5927 0.84828 10.2291 1.07251 10.0049L10.0047 1.07269C10.2289 0.848462 10.5925 0.848463 10.8167 1.07269C11.0409 1.29693 11.0409 1.66048 10.8167 1.88471L1.88453 10.8169C1.6603 11.0411 1.29674 11.0411 1.07251 10.8169Z" fill="#8E8E93"/>
</g>
</svg>
