<svg width="14" height="14" viewBox="0 0 14 14" fill="none" xmlns="http://www.w3.org/2000/svg">
<g id="Group">
<path id="Rectangle 1" d="M13.1592 13.1592C12.879 13.4395 12.4245 13.4395 12.1442 13.1592L0.97899 1.99394C0.698699 1.71365 0.6987 1.25921 0.97899 0.978924C1.25928 0.698633 1.71372 0.698632 1.99401 0.978923L13.1592 12.1442C13.4395 12.4244 13.4395 12.8789 13.1592 13.1592Z" fill="#FF3B30"/>
<path id="Rectangle 2" d="M0.840885 13.0211C0.560594 12.7408 0.560594 12.2864 0.840885 12.0061L12.0061 0.840868C12.2864 0.560577 12.7408 0.560578 13.0211 0.840869C13.3014 1.12116 13.3014 1.5756 13.0211 1.85589L1.85591 13.0211C1.57561 13.3014 1.12118 13.3014 0.840885 13.0211Z" fill="#FF3B30"/>
</g>
</svg>
