<svg width="104" height="104" viewBox="0 0 104 104" fill="none" xmlns="http://www.w3.org/2000/svg">
<g id="Group">
<g id="Group_2">
<path id="Vector" fill-rule="evenodd" clip-rule="evenodd" d="M103.667 52C103.667 80.5355 80.5357 103.667 52.0002 103.667C23.4647 103.667 0.333496 80.5355 0.333496 52C0.333496 23.4645 23.4647 0.333332 52.0002 0.333332C80.5357 0.333332 103.667 23.4645 103.667 52ZM52.0002 93.3333C62.9624 93.3333 73.4757 88.9786 81.2272 81.2271C88.9787 73.4756 93.3335 62.9623 93.3335 52C93.3335 41.0377 88.9787 30.5244 81.2272 22.7729C73.4757 15.0214 62.9624 10.6667 52.0002 10.6667C41.0379 10.6667 30.5246 15.0214 22.7731 22.7729C15.0216 30.5244 10.6668 41.0377 10.6668 52C10.6668 62.9623 15.0216 73.4756 22.7731 81.2271C30.5246 88.9786 41.0379 93.3333 52.0002 93.3333Z" fill="#8E8E93"/>
<path id="Vector_2" fill-rule="evenodd" clip-rule="evenodd" d="M52.0002 62.3333C50.6299 62.3333 49.3157 61.789 48.3468 60.8201C47.3778 59.8511 46.8335 58.537 46.8335 57.1667V31.3333C46.8335 29.963 47.3778 28.6489 48.3468 27.68C49.3157 26.711 50.6299 26.1667 52.0002 26.1667C53.3704 26.1667 54.6846 26.711 55.6535 27.68C56.6225 28.6489 57.1668 29.963 57.1668 31.3333V57.1667C57.1668 58.537 56.6225 59.8511 55.6535 60.8201C54.6846 61.789 53.3704 62.3333 52.0002 62.3333Z" fill="#8E8E93"/>
<path id="Vector_3" d="M46.8335 72.6667C46.8335 71.2964 47.3778 69.9822 48.3468 69.0133C49.3157 68.0443 50.6299 67.5 52.0002 67.5C53.3704 67.5 54.6846 68.0443 55.6535 69.0133C56.6225 69.9822 57.1668 71.2964 57.1668 72.6667C57.1668 74.0369 56.6225 75.3511 55.6535 76.3201C54.6846 77.289 53.3704 77.8333 52.0002 77.8333C50.6299 77.8333 49.3157 77.289 48.3468 76.3201C47.3778 75.3511 46.8335 74.0369 46.8335 72.6667Z" fill="#8E8E93"/>
</g>
</g>
</svg>
