<svg width="28" height="28" viewBox="0 0 28 28" fill="none" xmlns="http://www.w3.org/2000/svg">
<path d="M13.9999 18.6667C16.5772 18.6667 18.6666 16.5773 18.6666 14C18.6666 11.4227 16.5772 9.33333 13.9999 9.33333C11.4226 9.33333 9.33325 11.4227 9.33325 14C9.33325 16.5773 11.4226 18.6667 13.9999 18.6667Z" fill="#8E8E93"/>
<path d="M13.9998 4.66666C19.1565 4.66666 23.3332 8.84332 23.3332 14C23.3332 19.1567 19.1565 23.3333 13.9998 23.3333C8.84317 23.3333 4.6665 19.1567 4.6665 14C4.6665 8.84332 8.84317 4.66666 13.9998 4.66666Z" stroke="#8E8E93" stroke-width="2" stroke-linecap="round" stroke-linejoin="round"/>
<path d="M13.9999 4.66666V2.33333M23.3333 14H25.6666M13.9999 23.3333V25.6667M4.66659 14H2.33325" stroke="#8E8E93" stroke-width="2" stroke-linecap="round" stroke-linejoin="round"/>
</svg>
