<svg width="88" height="88" viewBox="0 0 88 88" fill="none" xmlns="http://www.w3.org/2000/svg">
<g filter="url(#filter0_d_139_1554)">
<rect x="20" y="18" width="48" height="48" rx="8" fill="white"/>
<rect x="20.1" y="18.1" width="47.8" height="47.8" rx="7.9" stroke="#AEAEB2" stroke-width="0.2"/>
<path d="M43.9999 46.6666C46.5772 46.6666 48.6666 44.5772 48.6666 41.9999C48.6666 39.4226 46.5772 37.3333 43.9999 37.3333C41.4226 37.3333 39.3333 39.4226 39.3333 41.9999C39.3333 44.5772 41.4226 46.6666 43.9999 46.6666Z" fill="#AEAEB2"/>
<path d="M43.9998 32.6665C49.1565 32.6665 53.3332 36.8432 53.3332 41.9998C53.3332 47.1565 49.1565 51.3332 43.9998 51.3332C38.8432 51.3332 34.6665 47.1565 34.6665 41.9998C34.6665 36.8432 38.8432 32.6665 43.9998 32.6665Z" stroke="#AEAEB2" stroke-width="2" stroke-linecap="round" stroke-linejoin="round"/>
<path d="M43.9999 32.6666V30.3333M53.3333 41.9999H55.6666M43.9999 51.3333V53.6666M34.6666 41.9999H32.3333" stroke="#AEAEB2" stroke-width="2" stroke-linecap="round" stroke-linejoin="round"/>
</g>
<defs>
<filter id="filter0_d_139_1554" x="0" y="0" width="88" height="88" filterUnits="userSpaceOnUse" color-interpolation-filters="sRGB">
<feFlood flood-opacity="0" result="BackgroundImageFix"/>
<feColorMatrix in="SourceAlpha" type="matrix" values="0 0 0 0 0 0 0 0 0 0 0 0 0 0 0 0 0 0 127 0" result="hardAlpha"/>
<feOffset dy="2"/>
<feGaussianBlur stdDeviation="10"/>
<feComposite in2="hardAlpha" operator="out"/>
<feColorMatrix type="matrix" values="0 0 0 0 0 0 0 0 0 0 0 0 0 0 0 0 0 0 0.16 0"/>
<feBlend mode="normal" in2="BackgroundImageFix" result="effect1_dropShadow_139_1554"/>
<feBlend mode="normal" in="SourceGraphic" in2="effect1_dropShadow_139_1554" result="shape"/>
</filter>
</defs>
</svg>
