<svg width="124" height="124" viewBox="0 0 124 124" fill="none" xmlns="http://www.w3.org/2000/svg">
<g id="logo">
<rect width="124" height="124" fill="white"/>
<path id="Subtract" fill-rule="evenodd" clip-rule="evenodd" d="M61.515 104.806C57.1556 129.328 90.4497 92.896 93.9682 50.9333C93.9682 32.9691 79.4384 18.4062 61.515 18.4062C43.5917 18.4062 29.0619 32.9691 29.0619 50.9333C28.8273 64.999 38.1006 72.3391 46.8462 79.2615C55.5263 86.1321 63.6866 92.5912 61.515 104.806ZM49.3462 33.4175C50.5444 32.2982 52.1695 31.6694 53.864 31.6694H66.6424C68.337 31.6694 69.9621 32.2982 71.1603 33.4175C72.3585 34.5368 73.0317 36.0549 73.0317 37.6378V39.6273H75.1614C76.8559 39.6273 78.481 40.2561 79.6792 41.3754C80.8774 42.4947 81.5506 44.0128 81.5506 45.5957V54.8799C81.5506 56.4628 80.8774 57.9809 79.6792 59.1002C78.481 60.2195 76.8559 60.8483 75.1614 60.8483H73.0317V64.8272C73.0317 65.8825 72.5829 66.8946 71.7841 67.6408C70.9853 68.387 69.9019 68.8062 68.7722 68.8062H51.7343C50.6046 68.8062 49.5212 68.387 48.7224 67.6408C47.9236 66.8946 47.4748 65.8825 47.4748 64.8272V37.6378C47.4748 36.0549 48.148 34.5368 49.3462 33.4175ZM75.1614 42.2799H73.0317V58.1957H75.1614C77.1207 58.1957 78.7109 56.7102 78.7109 54.8799V45.5957C78.7109 43.7654 77.1207 42.2799 75.1614 42.2799ZM53.864 34.322C51.9047 34.322 50.3145 35.8075 50.3145 37.6378V39.6273H70.192V37.6378C70.192 35.8075 68.6018 34.322 66.6424 34.322H53.864ZM67.3524 59.522V46.2589C67.3524 45.9071 67.2028 45.5697 66.9365 45.321C66.6702 45.0723 66.3091 44.9325 65.9325 44.9325C65.556 44.9325 65.1948 45.0723 64.9286 45.321C64.6623 45.5697 64.5127 45.9071 64.5127 46.2589V59.522C64.5127 59.8737 64.6623 60.2111 64.9286 60.4598C65.1948 60.7086 65.556 60.8483 65.9325 60.8483C66.3091 60.8483 66.6702 60.7086 66.9365 60.4598C67.2028 60.2111 67.3524 59.8737 67.3524 59.522ZM61.2572 45.321C60.9909 45.0723 60.6298 44.9325 60.2532 44.9325C59.8767 44.9325 59.5155 45.0723 59.2493 45.321C58.983 45.5697 58.8334 45.9071 58.8334 46.2589V59.522C58.8334 59.8737 58.983 60.2111 59.2493 60.4598C59.5155 60.7086 59.8767 60.8483 60.2532 60.8483C60.6298 60.8483 60.9909 60.7086 61.2572 60.4598C61.5235 60.2111 61.6731 59.8737 61.6731 59.522V46.2589C61.6731 45.9071 61.5235 45.5697 61.2572 45.321ZM55.9938 59.522V46.2589C55.9938 45.9071 55.8442 45.5697 55.5779 45.321C55.3116 45.0723 54.9505 44.9325 54.5739 44.9325C54.1974 44.9325 53.8362 45.0723 53.57 45.321C53.3037 45.5697 53.1541 45.9071 53.1541 46.2589V59.522C53.1541 59.8737 53.3037 60.2111 53.57 60.4598C53.8362 60.7086 54.1974 60.8483 54.5739 60.8483C54.9505 60.8483 55.3116 60.7086 55.5779 60.4598C55.8442 60.2111 55.9938 59.8737 55.9938 59.522Z" fill="#CB6015"/>
</g>
</svg>
