<svg width="88" height="88" viewBox="0 0 88 88" fill="none" xmlns="http://www.w3.org/2000/svg">
<g filter="url(#filter0_d_139_1552)">
<rect x="20" y="18" width="48" height="48" rx="8" fill="white"/>
<rect x="20.1" y="18.1" width="47.8" height="47.8" rx="7.9" stroke="#AEAEB2" stroke-width="0.2"/>
<path d="M44.0001 35.0001V37.0885C44.0001 37.6135 44.6301 37.8701 44.9917 37.4968L48.2467 34.2418C48.4801 34.0085 48.4801 33.6468 48.2467 33.4135L44.9917 30.1585C44.9095 30.0778 44.8052 30.0234 44.6921 30.0019C44.5789 29.9805 44.462 29.993 44.3559 30.0379C44.2499 30.0828 44.1595 30.1581 44.0962 30.2543C44.0328 30.3505 43.9994 30.4633 44.0001 30.5785V32.6668C38.8434 32.6668 34.6667 36.8435 34.6667 42.0001C34.6667 43.2135 34.9001 44.3801 35.3317 45.4418C35.6467 46.2235 36.6501 46.4335 37.2451 45.8385C37.5601 45.5235 37.6884 45.0451 37.5134 44.6251C37.1751 43.8201 37.0001 42.9218 37.0001 42.0001C37.0001 38.1385 40.1384 35.0001 44.0001 35.0001ZM50.7551 38.1618C50.4401 38.4768 50.3117 38.9668 50.4867 39.3751C50.8134 40.1918 51.0001 41.0785 51.0001 42.0001C51.0001 45.8618 47.8617 49.0001 44.0001 49.0001V46.9118C44.0001 46.3868 43.3701 46.1301 43.0084 46.5035L39.7534 49.7585C39.5201 49.9918 39.5201 50.3535 39.7534 50.5868L43.0084 53.8418C43.0899 53.9217 43.1932 53.976 43.3052 53.9978C43.4173 54.0197 43.5333 54.0081 43.6389 53.9647C43.7445 53.9212 43.835 53.8477 43.8992 53.7533C43.9634 53.6588 43.9985 53.5476 44.0001 53.4335V51.3335C49.1567 51.3335 53.3334 47.1568 53.3334 42.0001C53.3334 40.7868 53.1001 39.6201 52.6684 38.5585C52.3534 37.7768 51.3501 37.5668 50.7551 38.1618Z" fill="#8E8E93"/>
</g>
<defs>
<filter id="filter0_d_139_1552" x="0" y="0" width="88" height="88" filterUnits="userSpaceOnUse" color-interpolation-filters="sRGB">
<feFlood flood-opacity="0" result="BackgroundImageFix"/>
<feColorMatrix in="SourceAlpha" type="matrix" values="0 0 0 0 0 0 0 0 0 0 0 0 0 0 0 0 0 0 127 0" result="hardAlpha"/>
<feOffset dy="2"/>
<feGaussianBlur stdDeviation="10"/>
<feComposite in2="hardAlpha" operator="out"/>
<feColorMatrix type="matrix" values="0 0 0 0 0 0 0 0 0 0 0 0 0 0 0 0 0 0 0.16 0"/>
<feBlend mode="normal" in2="BackgroundImageFix" result="effect1_dropShadow_139_1552"/>
<feBlend mode="normal" in="SourceGraphic" in2="effect1_dropShadow_139_1552" result="shape"/>
</filter>
</defs>
</svg>
