<svg width="16" height="16" viewBox="0 0 16 16" fill="none" xmlns="http://www.w3.org/2000/svg">
<path d="M8 3.33331C9.10667 3.33331 10 4.22665 10 5.33331C10 6.43998 9.10667 7.33331 8 7.33331C6.89333 7.33331 6 6.43998 6 5.33331C6 4.22665 6.89333 3.33331 8 3.33331Z" fill="#2E2E2E"/>
<path fill-rule="evenodd" clip-rule="evenodd" d="M7.99967 3.99999C7.2612 3.99999 6.66634 4.59485 6.66634 5.33332C6.66634 6.0718 7.2612 6.66666 7.99967 6.66666C8.73815 6.66666 9.33301 6.0718 9.33301 5.33332C9.33301 4.59485 8.73815 3.99999 7.99967 3.99999ZM5.33301 5.33332C5.33301 3.85847 6.52482 2.66666 7.99967 2.66666C9.47453 2.66666 10.6663 3.85847 10.6663 5.33332C10.6663 6.80818 9.47453 7.99999 7.99967 7.99999C6.52482 7.99999 5.33301 6.80818 5.33301 5.33332Z" fill="#2E2E2E"/>
<path d="M7.99967 9.33331C10.6663 9.33331 12.6663 10.6666 12.6663 11.3333V12.6666H3.33301V11.3333C3.33301 10.6666 5.33301 9.33331 7.99967 9.33331Z" fill="#2E2E2E"/>
<path fill-rule="evenodd" clip-rule="evenodd" d="M3.98694 11.4162C3.98689 11.4162 3.98724 11.4153 3.98815 11.4134C3.98744 11.4152 3.98699 11.4162 3.98694 11.4162ZM3.99984 11.3926C4.02185 11.3573 4.06703 11.2988 4.14765 11.2218C4.31694 11.0602 4.5908 10.8665 4.96465 10.6796C5.70905 10.3074 6.774 9.99999 7.99984 9.99999C9.22567 9.99999 10.2906 10.3074 11.035 10.6796C11.4089 10.8665 11.6827 11.0602 11.852 11.2218C11.9326 11.2988 11.9778 11.3573 11.9998 11.3926V12H3.99984V11.3926ZM12.0127 11.4162C12.0127 11.4162 12.0122 11.4152 12.0115 11.4134C12.0124 11.4153 12.0128 11.4162 12.0127 11.4162ZM4.36836 9.48704C5.29062 9.02591 6.55901 8.66666 7.99984 8.66666C9.44067 8.66666 10.7091 9.02591 11.6313 9.48704C12.0908 9.71678 12.4836 9.98143 12.7727 10.2573C12.9171 10.3952 13.0486 10.5482 13.1477 10.7141C13.2439 10.8752 13.3332 11.0882 13.3332 11.3333V12.6667C13.3332 13.0348 13.0347 13.3333 12.6665 13.3333H3.33317C2.96498 13.3333 2.6665 13.0348 2.6665 12.6667V11.3333C2.6665 11.0882 2.75576 10.8752 2.852 10.7141C2.95111 10.5482 3.08261 10.3952 3.22702 10.2573C3.51607 9.98143 3.90887 9.71678 4.36836 9.48704Z" fill="#2E2E2E"/>
</svg>
