<svg width="64" height="64" viewBox="0 0 64 64" fill="none" xmlns="http://www.w3.org/2000/svg">
<g id="Icon/Plus">
<path id="Vector" d="M48.0002 34.6667H34.6668V48C34.6668 49.4667 33.4668 50.6667 32.0002 50.6667C30.5335 50.6667 29.3335 49.4667 29.3335 48V34.6667H16.0002C14.5335 34.6667 13.3335 33.4667 13.3335 32C13.3335 30.5334 14.5335 29.3334 16.0002 29.3334H29.3335V16C29.3335 14.5334 30.5335 13.3334 32.0002 13.3334C33.4668 13.3334 34.6668 14.5334 34.6668 16V29.3334H48.0002C49.4668 29.3334 50.6668 30.5334 50.6668 32C50.6668 33.4667 49.4668 34.6667 48.0002 34.6667Z" fill="#CB6015"/>
</g>
</svg>
