<svg width="28" height="28" viewBox="0 0 28 28" fill="none" xmlns="http://www.w3.org/2000/svg">
<g id="Icon/Renew">
<path id="Vector" d="M14.0001 7V9.08834C14.0001 9.61334 14.6301 9.87001 14.9917 9.49667L18.2467 6.24167C18.4801 6.00834 18.4801 5.64667 18.2467 5.41334L14.9917 2.15834C14.9095 2.07772 14.8052 2.02325 14.6921 2.00179C14.5789 1.98033 14.462 1.99285 14.3559 2.03777C14.2499 2.08268 14.1595 2.15798 14.0962 2.25418C14.0328 2.35038 13.9994 2.46317 14.0001 2.57834V4.66667C8.84341 4.66667 4.66675 8.84334 4.66675 14C4.66675 15.2133 4.90008 16.38 5.33175 17.4417C5.64675 18.2233 6.65008 18.4333 7.24508 17.8383C7.56008 17.5233 7.68842 17.045 7.51341 16.625C7.17508 15.82 7.00008 14.9217 7.00008 14C7.00008 10.1383 10.1384 7 14.0001 7ZM20.7551 10.1617C20.4401 10.4767 20.3117 10.9667 20.4867 11.375C20.8134 12.1917 21.0001 13.0783 21.0001 14C21.0001 17.8617 17.8617 21 14.0001 21V18.9117C14.0001 18.3867 13.3701 18.13 13.0084 18.5033L9.75341 21.7583C9.52008 21.9917 9.52008 22.3533 9.75341 22.5867L13.0084 25.8417C13.0899 25.9216 13.1932 25.9759 13.3052 25.9977C13.4173 26.0196 13.5333 26.008 13.6389 25.9645C13.7445 25.9211 13.835 25.8476 13.8992 25.7531C13.9634 25.6587 13.9985 25.5475 14.0001 25.4333V23.3333C19.1567 23.3333 23.3334 19.1567 23.3334 14C23.3334 12.7867 23.1001 11.62 22.6684 10.5583C22.3534 9.77667 21.3501 9.56667 20.7551 10.1617Z" fill="#8E8E93"/>
</g>
</svg>
