<svg width="34" height="34" viewBox="0 0 34 34" fill="none" xmlns="http://www.w3.org/2000/svg">
<g id="Icon/Rental">
<path id="Vector" d="M28.3333 26.9167H26.9167V7.08333C26.9167 6.30417 26.2792 5.66667 25.5 5.66667H19.8333C19.8333 4.8875 19.1958 4.25 18.4167 4.25H8.5C7.72083 4.25 7.08333 4.8875 7.08333 5.66667V26.9167H5.66667C4.8875 26.9167 4.25 27.5542 4.25 28.3333C4.25 29.1125 4.8875 29.75 5.66667 29.75H18.4167C19.1958 29.75 19.8333 29.1125 19.8333 28.3333V8.5H24.0833V28.3333C24.0833 29.1125 24.7208 29.75 25.5 29.75H28.3333C29.1125 29.75 29.75 29.1125 29.75 28.3333C29.75 27.5542 29.1125 26.9167 28.3333 26.9167ZM15.5833 18.4167C14.8042 18.4167 14.1667 17.7792 14.1667 17C14.1667 16.2208 14.8042 15.5833 15.5833 15.5833C16.3625 15.5833 17 16.2208 17 17C17 17.7792 16.3625 18.4167 15.5833 18.4167Z" fill="black"/>
</g>
</svg>
