<svg width="28" height="28" viewBox="0 0 28 28" fill="none" xmlns="http://www.w3.org/2000/svg">
<g id="Icon/Storenoplus">
<path id="Vector" d="M5.8334 4.66669H22.1667C22.4973 4.66669 22.7746 4.77869 22.9986 5.00269C23.2226 5.22669 23.3342 5.50358 23.3334 5.83335C23.3326 6.16313 23.2206 6.44041 22.9974 6.66519C22.7742 6.88996 22.4973 7.00158 22.1667 7.00002H5.8334C5.50284 7.00002 5.22595 6.88802 5.00273 6.66402C4.77951 6.44002 4.66751 6.16313 4.66673 5.83335C4.66595 5.50358 4.77795 5.22669 5.00273 5.00269C5.22751 4.77869 5.5044 4.66669 5.8334 4.66669ZM5.8334 23.3334C5.50284 23.3334 5.22595 23.2214 5.00273 22.9974C4.77951 22.7734 4.66751 22.4965 4.66673 22.1667V16.3334H4.46257C4.09312 16.3334 3.79173 16.1922 3.5584 15.9099C3.32507 15.6275 3.24729 15.302 3.32507 14.9334L4.49173 9.10002C4.55007 8.8278 4.68618 8.60419 4.90006 8.42919C5.11395 8.25419 5.35701 8.16669 5.62923 8.16669H22.3709C22.6431 8.16669 22.8862 8.25419 23.1001 8.42919C23.314 8.60419 23.4501 8.8278 23.5084 9.10002L24.6751 14.9334C24.7528 15.3028 24.6751 15.6283 24.4417 15.9099C24.2084 16.1914 23.907 16.3326 23.5376 16.3334H23.3334V22.1667C23.3334 22.4972 23.2214 22.7745 22.9974 22.9985C22.7734 23.2225 22.4965 23.3341 22.1667 23.3334C21.837 23.3326 21.5601 23.2206 21.3361 22.9974C21.1121 22.7741 21.0001 22.4972 21.0001 22.1667V16.3334H16.3334V22.1667C16.3334 22.4972 16.2214 22.7745 15.9974 22.9985C15.7734 23.2225 15.4965 23.3341 15.1667 23.3334H5.8334ZM7.00007 21H14.0001V16.3334H7.00007V21Z" fill="#8E8E93"/>
</g>
</svg>
